<svg xmlns="http://www.w3.org/2000/svg" width="30" height="30" viewBox="0 0 36 60">
  <g id="Group_3205" data-name="Group 3205" transform="translate(-1050 -2918)">
    <g id="Group_3205-2" data-name="Group 3205">
      <path id="Rectangle_720" data-name="Rectangle 720" d="M6,0H30a6,6,0,0,1,6,6V46a0,0,0,0,1,0,0H0a0,0,0,0,1,0,0V6A6,6,0,0,1,6,0Z" transform="translate(1050 2918)" fill="#fff"/>
      <path id="Rectangle_721" data-name="Rectangle 721" d="M0,0H36a0,0,0,0,1,0,0V6a6,6,0,0,1-6,6H6A6,6,0,0,1,0,6V0A0,0,0,0,1,0,0Z" transform="translate(1050 2966)" fill="#fff"/>
      <rect id="Rectangle_722" data-name="Rectangle 722" width="10" height="4" rx="2" transform="translate(1063 2970)"/>
      <rect id="Rectangle_723" data-name="Rectangle 723" width="14" height="4" rx="2" transform="translate(1061 2952)"/>
      <g id="settings-solid-badged" transform="translate(1054.03 2923.435)">
        <path id="Path_2166" data-name="Path 2166" d="M23.3,11.745,21,11.058a8.337,8.337,0,0,0-.323-.907A5.147,5.147,0,0,1,16.46,5.915a8.114,8.114,0,0,0-.914-.33l-.687-2.276A.419.419,0,0,0,14.454,3H12.133a.419.419,0,0,0-.4.3l-.687,2.269a7.984,7.984,0,0,0-1.635.687L7.352,5.138a.419.419,0,0,0-.495.076L5.189,6.843a.42.42,0,0,0-.076.495L6.226,9.4a8,8,0,0,0-.687,1.629l-2.273.688a.419.419,0,0,0-.3.4V14.44a.419.419,0,0,0,.3.4l2.287.688a7.993,7.993,0,0,0,.687,1.6L5.113,19.287a.42.42,0,0,0,.076.5L6.83,21.425a.419.419,0,0,0,.495.076l2.122-1.134a8,8,0,0,0,1.58.646l.687,2.317a.419.419,0,0,0,.4.3h2.322a.419.419,0,0,0,.4-.3l.687-2.324a7.984,7.984,0,0,0,1.566-.646L19.221,21.5a.419.419,0,0,0,.495-.076l1.642-1.643a.42.42,0,0,0,.076-.5l-1.14-2.131a8,8,0,0,0,.653-1.574l2.315-.687a.419.419,0,0,0,.3-.4V12.151a.419.419,0,0,0-.254-.406ZM13.293,17.094a3.781,3.781,0,1,1,3.778-3.781,3.779,3.779,0,0,1-3.778,3.781Z" transform="translate(0 -0.625)"/>
        <path id="Path_2167" data-name="Path 2167" d="M31.869,4.438A3.434,3.434,0,1,1,28.434,1a3.436,3.436,0,0,1,3.434,3.438Z" transform="translate(-6.899)"/>
      </g>
    </g>
  </g>
</svg>
