<svg xmlns="http://www.w3.org/2000/svg" width="30" height="30" viewBox="0 0 40 40.409">
  <g id="ecommerce_2_" data-name="ecommerce(2)" transform="translate(-2.594)">
    <path id="Path_2148" data-name="Path 2148" d="M220.262,0h-7.1V7.261h-2.368V0h-7.1V12h16.574Z" transform="translate(-185.223)" fill="#fff"/>
    <path id="Path_2149" data-name="Path 2149" d="M33.848,145.677H17.274a1.184,1.184,0,1,1,0-2.368h19.8l5.525-16.574H12.767L10.991,122h-8.4v2.368H9.35L15.7,141.309a3.55,3.55,0,0,0,.638,6.611,3.551,3.551,0,1,0,6.649.125H30.5a3.551,3.551,0,1,0,3.348-2.368Zm-2.581-9.471H27.929v-2.368h3.733Zm2.8-2.368H37.73l-.789,2.368H33.667Zm-6.133,4.735h2.943l-.395,2.368H27.929Zm-2.368,2.368H23.012l-.395-2.368h2.943Zm2.368-9.471V129.1h4.522l-.395,2.368Zm-2.368,0H21.434l-.395-2.368h4.522Zm0,2.368v2.368H22.223l-.395-2.368Zm-5.738,2.368h-3.5l-.888-2.368h4Zm.395,2.368.395,2.368H18.094l-.888-2.368Zm12.661,2.368.395-2.368h2.879l-.789,2.368Zm5.642-9.471H34.456l.395-2.368h4.458ZM18.639,129.1l.395,2.368H14.543l-.888-2.368Z" transform="translate(0 -112.371)" fill="#fff"/>
  </g>
</svg>
