<svg xmlns="http://www.w3.org/2000/svg" width="30" height="30" viewBox="0 0 40 40">
  <g id="crm" transform="translate(-3 -3)">
    <path id="Path_2111" data-name="Path 2111" d="M10.379,37.151V36.4a2.071,2.071,0,0,1,2.069-2.069H24.172v2.821a3.862,3.862,0,0,1,1.379,0V34.331H37.276A2.071,2.071,0,0,1,39.345,36.4v.752a3.862,3.862,0,0,1,1.379,0V36.4a3.452,3.452,0,0,0-3.448-3.448H25.552v-2.33H24.172v2.33H12.448A3.452,3.452,0,0,0,9,36.4v.752a3.862,3.862,0,0,1,1.379,0Z" transform="translate(-1.862 -8.572)" fill="#fff"/>
    <path id="Path_2112" data-name="Path 2112" d="M23.773,22.069a.77.77,0,0,0,.547-.226l.523-.523a.773.773,0,0,0-1.094-1.094l-.523.523a.773.773,0,0,0,.547,1.32Z" transform="translate(-6.207 -5.276)" fill="#fff"/>
    <path id="Path_2113" data-name="Path 2113" d="M26.773,25.069a.77.77,0,0,0,.547-.226l.523-.523a.773.773,0,0,0-1.094-1.094l-.523.523a.773.773,0,0,0,.547,1.32Z" transform="translate(-7.138 -6.207)" fill="#fff"/>
    <path id="Path_2114" data-name="Path 2114" d="M27,8.921a.286.286,0,0,0,.286.286h2.591a.687.687,0,0,0,.488-.2l1.177-1.177h1.093A3.994,3.994,0,0,0,35.478,6.65l.975.975a5.36,5.36,0,0,1-.59.5L39.034,11.3a5.16,5.16,0,0,0-7.743-6.788L27.083,8.719A.288.288,0,0,0,27,8.921Z" transform="translate(-7.448 0)" fill="#fff"/>
    <path id="Path_2115" data-name="Path 2115" d="M21.3,17a.77.77,0,0,0-.547.226l-.523.523a.773.773,0,0,0,1.094,1.094l.523-.523A.773.773,0,0,0,21.3,17Z" transform="translate(-5.276 -4.345)" fill="#fff"/>
    <path id="Path_2116" data-name="Path 2116" d="M29.773,28.069a.77.77,0,0,0,.547-.226l.523-.523a.773.773,0,0,0-1.094-1.094l-.523.523a.773.773,0,0,0,.547,1.32Z" transform="translate(-8.069 -7.138)" fill="#fff"/>
    <path id="Path_2117" data-name="Path 2117" d="M20.675,11.276a2.15,2.15,0,0,1,2.145,2.077,2.147,2.147,0,0,1,2.069,2.069,2.147,2.147,0,0,1,2.069,2.069,2.146,2.146,0,0,1,1.906,2.984l.23.23a.773.773,0,0,0,1.094-1.094l-3.02-3.02.975-.975,3.02,3.02a.773.773,0,0,0,1.094-1.094l-3.02-3.02.975-.975,3.02,3.02a.773.773,0,0,0,1.094-1.094l-3.02-3.02.975-.975L35.3,14.5A.773.773,0,0,0,36.394,13.4L31.821,8.83a5.392,5.392,0,0,1-1.979.377H29.32l-.773.773a2.054,2.054,0,0,1-1.463.606H24.492a1.665,1.665,0,0,1-1.177-2.842l3.359-3.359A5.157,5.157,0,0,0,19.408,11.7,2.128,2.128,0,0,1,20.675,11.276Z" transform="translate(-4.655 0)" fill="#fff"/>
    <path id="Path_2118" data-name="Path 2118" d="M29.828,52A4.833,4.833,0,0,0,25,56.828v1.379h1.379V55.448h1.379v2.759H31.9V55.448h1.379v2.759h1.379V56.828A4.833,4.833,0,0,0,29.828,52Z" transform="translate(-6.828 -15.207)" fill="#fff"/>
    <circle id="Ellipse_651" data-name="Ellipse 651" cx="2.759" cy="2.759" r="2.759" transform="translate(20.241 29.897)" fill="#fff"/>
    <path id="Path_2119" data-name="Path 2119" d="M51.828,52A4.833,4.833,0,0,0,47,56.828v1.379h1.379V55.448h1.379v2.759H53.9V55.448h1.379v2.759h1.379V56.828A4.833,4.833,0,0,0,51.828,52Z" transform="translate(-13.655 -15.207)" fill="#fff"/>
    <circle id="Ellipse_652" data-name="Ellipse 652" cx="2.759" cy="2.759" r="2.759" transform="translate(35.414 29.897)" fill="#fff"/>
    <circle id="Ellipse_653" data-name="Ellipse 653" cx="2.759" cy="2.759" r="2.759" transform="translate(5.069 29.897)" fill="#fff"/>
    <path id="Path_2120" data-name="Path 2120" d="M7.828,52A4.833,4.833,0,0,0,3,56.828v1.379H4.379V55.448H5.759v2.759H9.9V55.448h1.379v2.759h1.379V56.828A4.833,4.833,0,0,0,7.828,52Z" transform="translate(0 -15.207)" fill="#fff"/>
    <path id="Path_2121" data-name="Path 2121" d="M38,38h1.379v1.379H38Z" transform="translate(-10.862 -10.862)" fill="#fff"/>
    <path id="Path_2122" data-name="Path 2122" d="M42,38h1.379v1.379H42Z" transform="translate(-12.103 -10.862)" fill="#fff"/>
    <path id="Path_2123" data-name="Path 2123" d="M46,38h1.379v1.379H46Z" transform="translate(-13.345 -10.862)" fill="#fff"/>
    <path id="Path_2124" data-name="Path 2124" d="M16,38h1.379v1.379H16Z" transform="translate(-4.034 -10.862)" fill="#fff"/>
    <path id="Path_2125" data-name="Path 2125" d="M20,38h1.379v1.379H20Z" transform="translate(-5.276 -10.862)" fill="#fff"/>
    <path id="Path_2126" data-name="Path 2126" d="M24,38h1.379v1.379H24Z" transform="translate(-6.517 -10.862)" fill="#fff"/>
  </g>
</svg>
