<svg xmlns="http://www.w3.org/2000/svg" width="30" height="30" viewBox="0 0 40 46.588">
  <g id="funnel" transform="translate(-34.86)">
    <path id="Path_2143" data-name="Path 2143" d="M186.514,358.988l11.339-7.56V345H186.514Z" transform="translate(-137.324 -312.4)" fill="#fff"/>
    <path id="Path_2144" data-name="Path 2144" d="M67.617,14.174v-4.5a4.252,4.252,0,1,0-2.835,0v4.5H61.947V11.339H59.112v2.835H56.277V8.261a4.252,4.252,0,1,0-2.835,0v5.913H50.608V11.339H47.773v2.835H44.938v-4.5a4.252,4.252,0,1,0-2.835,0v4.5H34.86l4.639,5.67H70.221l4.639-5.67Z" transform="translate(0 0)" fill="#fff"/>
    <path id="Path_2145" data-name="Path 2145" d="M114.295,247.087h14.487l5.8-7.087H108.5Z" transform="translate(-66.678 -217.321)" fill="#fff"/>
  </g>
</svg>
