<svg id="app-development" xmlns="http://www.w3.org/2000/svg" width="32.716" height="30.76" viewBox="0 0 32.716 50.76">
  <path id="Path_1199" data-name="Path 1199" d="M152.974,213.487a1.487,1.487,0,1,0-1.487,1.487A1.488,1.488,0,0,0,152.974,213.487Zm0,0" transform="translate(-135.129 -190.982)" fill="#fff"/>
  <path id="Path_1200" data-name="Path 1200" d="M131.7,272a4.445,4.445,0,0,0-3.664,1.969,7.181,7.181,0,0,0,7.329,0A4.445,4.445,0,0,0,131.7,272Zm0,0" transform="translate(-115.345 -245.034)" fill="#fff"/>
  <path id="Path_1201" data-name="Path 1201" d="M97.436,152A7.444,7.444,0,0,0,90,159.436a7.364,7.364,0,0,0,1.506,4.438,7.458,7.458,0,0,1,2.234-1.943,4.461,4.461,0,1,1,7.391,0,7.458,7.458,0,0,1,2.234,1.943,7.364,7.364,0,0,0,1.506-4.438A7.444,7.444,0,0,0,97.436,152Zm0,0" transform="translate(-81.077 -136.931)" fill="#fff"/>
  <path id="Path_1202" data-name="Path 1202" d="M26.649,105.069a10.521,10.521,0,0,1-10.291,8.923,10.41,10.41,0,1,1,10.291-11.9h6.067V90H0v32.915H32.716V119.94H28.255a1.487,1.487,0,1,1,0-2.974h4.461v-11.9ZM10.41,119.94a1.487,1.487,0,1,1,1.487-1.487A1.473,1.473,0,0,1,10.41,119.94Zm5.948,0a1.487,1.487,0,1,1,1.487-1.487A1.473,1.473,0,0,1,16.358,119.94Zm5.948,0a1.487,1.487,0,1,1,1.487-1.487A1.473,1.473,0,0,1,22.307,119.94Zm0,0" transform="translate(0 -81.077)" fill="#fff"/>
  <path id="Path_1203" data-name="Path 1203" d="M4.461,457.949H28.255a4.467,4.467,0,0,0,4.461-4.461V452H0v1.487A4.467,4.467,0,0,0,4.461,457.949Zm0,0" transform="translate(0 -407.189)" fill="#fff"/>
  <path id="Path_1204" data-name="Path 1204" d="M32.716,4.461A4.466,4.466,0,0,0,28.255,0H4.461A4.466,4.466,0,0,0,0,4.461V5.948H32.716Zm0,0" transform="translate(0 0)" fill="#fff"/>
</svg>
