<svg xmlns="http://www.w3.org/2000/svg" width="30" height="30" viewBox="0 0 41 65">
  <g id="Group_3203" data-name="Group 3203" transform="translate(-1085 -1727)">
    <path id="Rectangle_709" data-name="Rectangle 709" d="M4,0H15a4,4,0,0,1,4,4V9a0,0,0,0,1,0,0H0A0,0,0,0,1,0,9V4A4,4,0,0,1,4,0Z" transform="translate(1093 1727)" fill="#fff"/>
    <path id="Rectangle_710" data-name="Rectangle 710" d="M0,0H19a0,0,0,0,1,0,0V5a4,4,0,0,1-4,4H4A4,4,0,0,1,0,5V0A0,0,0,0,1,0,0Z" transform="translate(1093 1783)" fill="#fff"/>
    <rect id="Rectangle_711" data-name="Rectangle 711" width="34" height="41" rx="6" transform="translate(1085 1739)" fill="#fff"/>
    <path id="Rectangle_712" data-name="Rectangle 712" d="M0,0H0A4,4,0,0,1,4,4V8a4,4,0,0,1-4,4H0a0,0,0,0,1,0,0V0A0,0,0,0,1,0,0Z" transform="translate(1122 1753)" fill="#fff"/>
    <rect id="Rectangle_713" data-name="Rectangle 713" width="10" height="4" rx="2" transform="translate(1092 1762)"/>
    <rect id="Rectangle_714" data-name="Rectangle 714" width="10" height="4" rx="2" transform="translate(1092 1768)"/>
    <rect id="Rectangle_715" data-name="Rectangle 715" width="10" height="4" rx="2" transform="translate(1111 1762) rotate(90)"/>
    <circle id="Ellipse_654" data-name="Ellipse 654" cx="2" cy="2" r="2" transform="translate(1107 1748)"/>
    <circle id="Ellipse_655" data-name="Ellipse 655" cx="2" cy="2" r="2" transform="translate(1107 1755)"/>
    <g id="Ellipse_656" data-name="Ellipse 656" transform="translate(1091 1747)" fill="none" stroke="#000" stroke-width="4">
      <circle cx="6" cy="6" r="6" stroke="none"/>
      <circle cx="6" cy="6" r="4" fill="none"/>
    </g>
  </g>
</svg>
