<svg xmlns="http://www.w3.org/2000/svg" width="30" height="30" viewBox="0 0 40 39.844">
  <g id="web-development" transform="translate(0 -1)">
    <path id="Path_2146" data-name="Path 2146" d="M40,10.375V4.516A3.52,3.52,0,0,0,36.484,1H3.516A3.52,3.52,0,0,0,0,4.516v5.859ZM27.031,5.687h7.031a1.172,1.172,0,0,1,0,2.344H27.031a1.172,1.172,0,1,1,0-2.344Zm-11.719,0a1.172,1.172,0,1,1-1.172,1.172A1.172,1.172,0,0,1,15.312,5.687Zm-4.687,0A1.172,1.172,0,1,1,9.453,6.859,1.172,1.172,0,0,1,10.625,5.687Zm-4.688,0A1.172,1.172,0,1,1,4.766,6.859,1.172,1.172,0,0,1,5.937,5.687Z" transform="translate(0)" fill="#fff"/>
    <path id="Path_2147" data-name="Path 2147" d="M0,151v24.609a3.52,3.52,0,0,0,3.516,3.516H36.484A3.52,3.52,0,0,0,40,175.609V151Zm13.7,16.663a1.172,1.172,0,1,1-1.464,1.83l-5.859-4.687a1.172,1.172,0,0,1,0-1.83l5.859-4.687a1.172,1.172,0,1,1,1.464,1.83l-4.715,3.773Zm10.892-11.514-7.031,16.406a1.172,1.172,0,0,1-2.154-.923l7.031-16.406a1.172,1.172,0,0,1,2.154.923Zm9.03,8.657-5.859,4.687a1.172,1.172,0,1,1-1.464-1.83l4.715-3.773L26.3,160.118a1.172,1.172,0,1,1,1.464-1.83l5.859,4.688A1.172,1.172,0,0,1,33.623,164.806Z" transform="translate(0 -138.281)" fill="#fff"/>
  </g>
</svg>
